<svg xmlns="http://www.w3.org/2000/svg" width="300" height="500" viewBox="0 0 300 500"><rect width="100%" height="100%" fill="#DDDDDD"/><path fill="#999999" d="M69.5 223.185v41.89h-7.84v-41.89h7.84Zm5.24 27.66v-.57q0-6.5 3.62-10.65 3.63-4.14 10.05-4.14 6.44 0 10.1 4.13 3.65 4.14 3.65 10.66v.57q0 6.55-3.64 10.67t-10.06 4.12q-6.44 0-10.08-4.12-3.64-4.12-3.64-10.67Zm7.81-.57v.57q0 3.97 1.4 6.37 1.4 2.41 4.51 2.41 3.04 0 4.45-2.42 1.41-2.42 1.41-6.36v-.57q0-3.86-1.43-6.31-1.42-2.44-4.48-2.44-3.04 0-4.45 2.46-1.41 2.45-1.41 6.29Zm49.34 14.8h-7.84q-.43-.99-.74-2.09-.31-1.11-.45-2.26-1.2 2.12-3.18 3.52-1.97 1.39-4.71 1.39-4.57 0-7.04-2.35-2.47-2.35-2.47-6.4 0-4.27 3.29-6.62 3.29-2.35 9.6-2.35h4.38v-2.31q0-2.09-1.1-3.25-1.1-1.15-3.25-1.15-1.91 0-2.94.92-1.04.93-1.04 2.57l-7.57-.03-.03-.16q-.18-3.68 3.2-6.35 3.38-2.67 8.89-2.67 5.21 0 8.46 2.64 3.25 2.65 3.25 7.53v12.01q0 2.04.31 3.84.31 1.8.98 3.57Zm-15.01-5.24q2.06 0 3.67-1.02 1.62-1.02 2.18-2.36v-4.11h-4.38q-2.5 0-3.78 1.25-1.29 1.25-1.29 3.02 0 1.45.96 2.34.97.88 2.64.88Zm18.44-8.48v-.57q0-6.87 2.97-11.09 2.97-4.21 8.37-4.21 2.17 0 3.92.94 1.74.94 3.06 2.68v-15.92h7.87v41.89h-6.74l-.65-3.54q-1.37 2.01-3.23 3.06-1.87 1.04-4.29 1.04-5.34 0-8.31-3.92-2.97-3.92-2.97-10.36Zm7.82-.57v.57q0 3.81 1.29 6t4.19 2.19q1.69 0 2.95-.69 1.26-.68 2.07-2v-12.38q-.81-1.37-2.05-2.13-1.25-.77-2.92-.77-2.87 0-4.2 2.55t-1.33 6.66Zm32.68-14.77v29.06h-7.84v-29.06h7.84Zm0-12.83v5.88h-7.84v-5.88h7.84Zm6.31 12.83h7.31l.35 4.16q1.45-2.22 3.57-3.46 2.12-1.23 4.75-1.23 4.41 0 6.88 2.76 2.47 2.77 2.47 8.68v18.15h-7.87v-18.13q0-2.92-1.18-4.15-1.18-1.22-3.57-1.22-1.56 0-2.8.63-1.23.63-2.06 1.79v21.08h-7.85v-29.06Zm29.97 15.34v-.57q0-6.87 3-11.09 2.99-4.21 8.39-4.21 2.45 0 4.3 1.1 1.85 1.1 3.17 3.14l.61-3.71h6.77v28.93q0 5.66-3.72 8.76-3.72 3.11-10.35 3.11-2.2 0-4.67-.61-2.47-.6-4.57-1.65l1.45-5.85q1.8.85 3.67 1.3 1.86.44 4.07.44 3.22 0 4.74-1.34 1.51-1.34 1.51-4.19v-2.63q-1.29 1.64-3.03 2.49-1.75.86-4 .86-5.35 0-8.34-3.93-3-3.93-3-10.35Zm7.85-.57v.57q0 3.81 1.29 6 1.28 2.19 4.19 2.19 1.79 0 3.04-.66t2-1.92v-12.62q-.75-1.32-2-2.04-1.25-.73-2.99-.73-2.87 0-4.2 2.55t-1.33 6.66Z"/></svg>